<?xml version="1.0" encoding="utf-8"?>
<!-- Generator: Adobe Illustrator 23.0.1, SVG Export Plug-In . SVG Version: 6.00 Build 0)  -->
<svg  fill="#ffffff" version="1.1" id="Capa_1" xmlns="http://www.w3.org/2000/svg" xmlns:xlink="http://www.w3.org/1999/xlink" x="0px" y="0px"
	 viewBox="0 0 370.1 316.6" style="enable-background:new 0 0 370.1 316.6;" xml:space="preserve">
<g>
	<g>
		<path d="M184,0c-5.9,0-10.7,4.8-10.7,10.7V96c0,5.9,4.8,10.7,10.7,10.7s10.7-4.8,10.7-10.7V10.7C194.7,4.8,189.9,0,184,0z"/>
	</g>
</g>
<g>
	<g>
		<path d="M98.7,170.7H13.4c-5.9,0-10.7,4.8-10.7,10.7S7.5,192,13.4,192h85.3c5.9,0,10.7-4.8,10.7-10.7S104.6,170.7,98.7,170.7z"/>
	</g>
</g>
<g>
	<g>
		<path d="M354.7,170.7h-85.3c-5.9,0-10.7,4.8-10.7,10.7s4.8,10.7,10.7,10.7h85.3c5.9,0,10.7-4.8,10.7-10.7S360.6,170.7,354.7,170.7
			z"/>
	</g>
</g>
<g>
	<g>
		<path d="M131.2,113.5L70.9,53.1c-4.2-4.2-10.9-4.2-15.1,0s-4.2,10.9,0,15.1l60.4,60.3c2.1,2.1,4.8,3.1,7.6,3.1s5.5-1,7.5-3.1
			C135.4,124.4,135.4,117.6,131.2,113.5z"/>
	</g>
</g>
<g>
	<g>
		<path d="M131.2,234.2c-4.2-4.2-10.9-4.2-15.1,0l-60.4,60.3c-4.2,4.2-4.2,10.9,0,15.1c2.1,2.1,4.8,3.1,7.6,3.1c2.7,0,5.5-1,7.5-3.1
			l60.4-60.3C135.4,245.1,135.4,238.3,131.2,234.2z"/>
	</g>
</g>
<g>
	<g>
		<path d="M312.2,53.1c-4.2-4.2-10.9-4.2-15.1,0l-60.4,60.3c-4.2,4.2-4.2,10.9,0,15.1c2.1,2.1,4.8,3.1,7.6,3.1s5.5-1,7.5-3.1
			l60.4-60.3C316.4,64,316.4,57.3,312.2,53.1z"/>
	</g>
</g>
</svg>
